<svg width="36" height="37" viewBox="0 0 36 37" fill="none" xmlns="http://www.w3.org/2000/svg">
<path d="M36 16.8666V8.741C36 7.22324 34.7475 5.50188 33.1919 4.92809L21.9394 0.707979C19.4141 -0.235993 16.5656 -0.235993 14.0404 0.707979L2.78789 4.92809C1.25253 5.50188 0 7.22324 0 8.741V16.8666C0 25.9176 7.17174 34.3948 16.9697 36.8751C17.6363 37.0416 18.3636 37.0416 19.0303 36.8751C28.8283 34.3948 36 25.9176 36 16.8666ZM19.5151 20.1057V24.9736C19.5151 25.7325 18.8282 26.3618 18 26.3618C17.1717 26.3618 16.4848 25.7325 16.4848 24.9736V20.1057C14.4444 19.5134 12.9495 17.7735 12.9495 15.719C12.9495 13.1647 15.2121 11.0917 18 11.0917C20.7878 11.0917 23.0505 13.1647 23.0505 15.719C23.0505 17.792 21.5555 19.5134 19.5151 20.1057Z" fill="#0B8C37"/>
</svg>
