<svg width="34" height="30" viewBox="0 0 34 30" fill="none" xmlns="http://www.w3.org/2000/svg">
<path d="M22.0558 29.2719C21.724 29.2719 21.3922 29.2288 21.0604 29.157C20.0809 28.9128 19.2593 28.3526 18.7379 27.5625L18.5483 27.2752C17.6162 25.81 16.3364 25.81 15.4043 27.2752L15.2305 27.5482C14.7091 28.3526 13.8875 28.9272 12.908 29.157C11.9126 29.4012 10.8857 29.2719 10.0167 28.7979L7.29926 27.3758C6.3355 26.873 5.64033 26.0542 5.34015 25.0631C5.05576 24.0719 5.19796 23.052 5.75093 22.1758C6.20911 21.4432 6.3355 20.7824 6.06691 20.3659C5.79833 19.9493 5.11896 19.7051 4.1868 19.7051C1.88011 19.7051 0 17.9957 0 15.8985V13.3703C0 11.273 1.88011 9.56366 4.1868 9.56366C5.11896 9.56366 5.79833 9.31946 6.06691 8.90289C6.3355 8.48631 6.22491 7.82554 5.75093 7.09294C5.19796 6.2167 5.05576 5.18245 5.34015 4.20565C5.62454 3.2145 6.3197 2.39571 7.29926 1.89295L10.0325 0.470853C11.8178 -0.491577 14.1719 0.0686433 15.2463 1.72057L15.4359 2.00787C16.368 3.47306 17.6478 3.47306 18.5799 2.00787L18.7537 1.73494C19.8281 0.0686433 22.1822 -0.491577 23.9833 0.485218L26.7007 1.90732C27.6645 2.41008 28.3597 3.22886 28.6599 4.22002C28.9442 5.21118 28.802 6.23107 28.2491 7.10731C27.7909 7.8399 27.6645 8.50068 27.9331 8.91725C28.2017 9.33383 28.881 9.57802 29.8132 9.57802C32.1199 9.57802 34 11.2874 34 13.3846V15.9128C34 18.0101 32.1199 19.7194 29.8132 19.7194C28.881 19.7194 28.2017 19.9636 27.9331 20.3802C27.6645 20.7968 27.7751 21.4576 28.2491 22.1902C28.802 23.0664 28.96 24.1007 28.6599 25.0775C28.3755 26.0686 27.6803 26.8874 26.7007 27.3902L23.9675 28.8123C23.3671 29.1139 22.7193 29.2719 22.0558 29.2719ZM16.9842 23.957C18.3903 23.957 19.7017 24.7614 20.6022 26.1835L20.776 26.4565C20.9656 26.7581 21.2816 26.9736 21.6608 27.0598C22.04 27.146 22.4191 27.1029 22.7351 26.9305L25.4684 25.494C25.8792 25.2786 26.1952 24.9194 26.3216 24.4885C26.448 24.0576 26.3848 23.6123 26.1478 23.2388C25.2472 21.831 25.1366 20.3802 25.8318 19.2741C26.527 18.1681 27.9647 17.536 29.7658 17.536C30.777 17.536 31.5827 16.8034 31.5827 15.8841V13.3559C31.5827 12.4509 30.777 11.704 29.7658 11.704C27.9647 11.704 26.527 11.0719 25.8318 9.96587C25.1366 8.85979 25.2472 7.40897 26.1478 6.00123C26.3848 5.62775 26.448 5.18245 26.3216 4.75151C26.1952 4.32057 25.895 3.97582 25.4842 3.74599L22.7509 2.32389C22.0716 1.95041 21.171 2.16588 20.7602 2.79792L20.5864 3.07085C19.6859 4.49295 18.3745 5.29737 16.9684 5.29737C15.5623 5.29737 14.2509 4.49295 13.3504 3.07085L13.1766 2.78356C12.7816 2.18024 11.8968 1.96477 11.2175 2.32389L8.4842 3.76035C8.07342 3.97582 7.75743 4.33494 7.63104 4.76587C7.50465 5.19681 7.56784 5.64212 7.80483 6.0156C8.70539 7.42333 8.81598 8.87416 8.12082 9.98023C7.42565 11.0863 5.98792 11.7184 4.1868 11.7184C3.17565 11.7184 2.36989 12.4509 2.36989 13.3703V15.8985C2.36989 16.8034 3.17565 17.5504 4.1868 17.5504C5.98792 17.5504 7.42565 18.1824 8.12082 19.2885C8.81598 20.3946 8.70539 21.8454 7.80483 23.2531C7.56784 23.6266 7.50465 24.0719 7.63104 24.5029C7.75743 24.9338 8.05762 25.2786 8.4684 25.5084L11.2017 26.9305C11.5335 27.1172 11.9284 27.1603 12.2918 27.0741C12.671 26.9879 12.987 26.7581 13.1924 26.4565L13.3662 26.1835C14.2667 24.7758 15.5781 23.957 16.9842 23.957Z" fill="#5A5B5D"/>
</svg>
