<svg width="33" height="31" viewBox="0 0 33 31" fill="none" xmlns="http://www.w3.org/2000/svg">
<path d="M32.2487 22.94C31.8407 27.8088 28.5597 31 23.7998 31H8.49991C3.80796 31 0 26.9153 0 21.8824V9.11765C0 4.15765 2.78797 0.692941 7.12293 0.109412C7.56492 0.0364705 8.02392 0 8.49991 0H23.7998C24.2418 0 24.6668 0.0182352 25.0747 0.0911764C29.1377 0.601765 31.8917 3.64706 32.2487 8.06C32.2997 8.58882 31.8917 9.02647 31.3987 9.02647H28.7637C27.1317 9.02647 25.6187 9.70118 24.5308 10.9047C23.2388 12.2541 22.5928 14.1506 22.7458 16.0471C23.0178 19.3659 25.7377 21.9735 28.9677 21.9735H31.3987C31.8917 21.9735 32.2997 22.4112 32.2487 22.94Z" fill="#FBFDFF"/>
</svg>
